<?xml version="1.0" encoding="UTF-8" standalone="no"?>
<!DOCTYPE svg PUBLIC "-//W3C//DTD SVG 1.1//EN" "http://www.w3.org/Graphics/SVG/1.1/DTD/svg11.dtd">
<svg width="100%" height="100%" viewBox="0 0 200 300" version="1.1" xmlns="http://www.w3.org/2000/svg" xmlns:xlink="http://www.w3.org/1999/xlink" xml:space="preserve" xmlns:serif="http://www.serif.com/" style="fill-rule:evenodd;clip-rule:evenodd;stroke-linejoin:round;stroke-miterlimit:2;">
    <g transform="matrix(1.02983,0,0,1,-3.26162,-1.72445)">
        <rect x="-6.277" y="-7.513" width="212.672" height="312.421" style="fill:rgb(255,244,67);"/>
    </g>
    <g transform="matrix(1.20018,0,0,1.05118,-1.23365,2.89695)">
        <text x="4.259px" y="26.57px" style="font-family:'ArialMT', 'Arial', sans-serif;font-size:31.529px;">1</text>
        <rect x="4.259" y="29.911" width="17.535" height="2.309"/>
    </g>
    <g transform="matrix(-1.27229,0,0,-1.11433,197.257,294.909)">
        <text x="4.259px" y="26.57px" style="font-family:'ArialMT', 'Arial', sans-serif;font-size:31.529px;">1</text>
        <rect x="4.259" y="29.911" width="17.535" height="2.309"/>
    </g>
    <g id="Alarm-Clock" serif:id="Alarm Clock" transform="matrix(4.02561,5.03815e-31,-4.96217e-32,4.08725,-572.276,-299.393)">
        <path d="M162.278,98.859C162.554,99.046 162.576,99.453 162.324,99.673L155.933,105.275C155.691,105.488 155.317,105.421 155.166,105.134C154.804,104.45 154.5,103.64 154.5,102.877C154.5,100.129 156.687,97.9 159.385,97.9C160.382,97.9 161.452,98.3 162.278,98.859ZM174.615,97.4C177.313,97.4 179.5,99.629 179.5,102.377C179.5,103.14 179.196,103.95 178.834,104.634C178.683,104.921 178.309,104.988 178.067,104.775L171.676,99.173C171.424,98.953 171.446,98.546 171.722,98.359C172.548,97.8 173.618,97.4 174.615,97.4ZM167.329,100.345C173.301,100.345 178.142,105.186 178.142,111.157C178.142,113.936 177.085,116.46 175.364,118.375L177.472,120.484C177.933,120.945 177.933,121.693 177.472,122.155C177.011,122.615 176.263,122.615 175.801,122.155L173.601,119.954C171.831,121.219 169.67,121.971 167.329,121.971C164.905,121.971 162.675,121.163 160.871,119.816L158.533,122.155C158.072,122.615 157.324,122.615 156.862,122.155C156.401,121.693 156.401,120.945 156.862,120.484L159.14,118.205C157.509,116.312 156.516,113.853 156.516,111.157C156.516,105.186 161.357,100.345 167.329,100.345ZM168.183,112.336L168.183,103.845C168.183,103.41 167.83,103.058 167.395,103.058C166.96,103.058 166.608,103.41 166.608,103.845L166.608,110.761L161.806,110.761C161.427,110.761 161.119,111.069 161.119,111.448L161.119,111.649C161.119,112.029 161.427,112.336 161.806,112.336L168.183,112.336Z"/>
    </g>
</svg>
