<?xml version="1.0" encoding="UTF-8" standalone="no"?>
<!DOCTYPE svg PUBLIC "-//W3C//DTD SVG 1.1//EN" "http://www.w3.org/Graphics/SVG/1.1/DTD/svg11.dtd">
<svg width="100%" height="100%" viewBox="0 0 200 300" version="1.1" xmlns="http://www.w3.org/2000/svg" xmlns:xlink="http://www.w3.org/1999/xlink" xml:space="preserve" xmlns:serif="http://www.serif.com/" style="fill-rule:evenodd;clip-rule:evenodd;stroke-linejoin:round;stroke-miterlimit:2;">
    <g transform="matrix(1.01388,0,0,1,-3.36174,-1.72445)">
        <rect x="-6.277" y="-7.513" width="212.672" height="312.421" style="fill:rgb(255,244,67);"/>
    </g>
    <g id="Windows" transform="matrix(1,1.85871e-32,1.2326e-32,1.50796,-1583.3,-2010.91)">
        <path d="M1696.8,1419.5L1696.8,1457.5L1658.8,1457.5L1658.8,1419.5L1696.8,1419.5ZM1694.8,1455.5L1694.8,1421.5L1660.8,1421.5L1660.8,1455.5L1694.8,1455.5ZM1707.8,1408.5L1707.8,1446.5L1698.8,1446.5L1698.8,1444.5L1705.8,1444.5L1705.8,1410.5L1671.8,1410.5L1671.8,1417.5L1669.8,1417.5L1669.8,1408.5L1707.8,1408.5Z"/>
    </g>
    <g id="Add" transform="matrix(0.726798,9.85433e-32,0,0.726798,-93.9778,117.294)">
        <path d="M193,43.5L207,43.5L207,29.5L210,29.5L210,43.5L224,43.5L224,46.5L210,46.5L210,60.5L207,60.5L207,46.5L193,46.5L193,43.5Z"/>
    </g>
    <g transform="matrix(1.14175,0,0,1.23216,-69.4703,-12.6298)">
        <text x="61.495px" y="31.142px" style="font-family:'Verdana', sans-serif;font-size:16.814px;">+</text>
    </g>
    <g transform="matrix(1.20018,0,0,1.05118,6.4211,3.27268)">
        <text x="4.259px" y="26.57px" style="font-family:'ArialMT', 'Arial', sans-serif;font-size:31.529px;">2</text>
        <rect x="4.259" y="29.911" width="17.535" height="2.309"/>
    </g>
    <g transform="matrix(-1.30585,0,0,-1.40926,280.765,316.275)">
        <text x="61.495px" y="31.142px" style="font-family:'Verdana', sans-serif;font-size:16.814px;">+</text>
    </g>
    <g transform="matrix(-1.37269,0,0,-1.20227,193.966,298.086)">
        <text x="4.259px" y="26.57px" style="font-family:'ArialMT', 'Arial', sans-serif;font-size:31.529px;">2</text>
        <rect x="4.259" y="29.911" width="17.535" height="2.309"/>
    </g>
</svg>
