<?xml version="1.0" encoding="UTF-8" standalone="no"?>
<!DOCTYPE svg PUBLIC "-//W3C//DTD SVG 1.1//EN" "http://www.w3.org/Graphics/SVG/1.1/DTD/svg11.dtd">
<svg width="100%" height="100%" viewBox="0 0 200 300" version="1.1" xmlns="http://www.w3.org/2000/svg" xmlns:xlink="http://www.w3.org/1999/xlink" xml:space="preserve" xmlns:serif="http://www.serif.com/" style="fill-rule:evenodd;clip-rule:evenodd;stroke-linejoin:round;stroke-miterlimit:2;">
    <g transform="matrix(1.01388,0,0,1,-3.36174,-1.72445)">
        <rect x="-6.277" y="-7.513" width="212.672" height="312.421"/>
    </g>
    <g transform="matrix(1,0,0,1,-11.082,13.9994)">
        <g id="Windows" transform="matrix(1,1.85871e-32,1.2326e-32,1.50796,-1583.3,-2010.91)">
            <path d="M1696.8,1419.5L1696.8,1457.5L1658.8,1457.5L1658.8,1419.5L1696.8,1419.5ZM1694.8,1455.5L1694.8,1421.5L1660.8,1421.5L1660.8,1455.5L1694.8,1455.5Z" style="fill:rgb(231,64,64);"/>
        </g>
        <g id="Windows1" serif:id="Windows" transform="matrix(1,1.85871e-32,1.2326e-32,1.50796,-1571.63,-2024.24)">
            <path d="M1707.8,1408.5L1707.8,1446.5L1698.8,1446.5L1698.8,1444.5L1705.8,1444.5L1705.8,1410.5L1671.8,1410.5L1671.8,1417.5L1669.8,1417.5L1669.8,1408.5L1707.8,1408.5Z" style="fill:rgb(85,217,90);"/>
        </g>
        <g id="Windows2" serif:id="Windows" transform="matrix(1,1.85871e-32,1.2326e-32,1.50796,-1583.23,-2009.44)">
            <path d="M1707.8,1408.5L1707.8,1446.5L1698.8,1446.5L1698.8,1444.5L1705.8,1444.5L1705.8,1410.5L1671.8,1410.5L1671.8,1417.5L1669.8,1417.5L1669.8,1408.5L1707.8,1408.5Z" style="fill:rgb(67,97,255);"/>
        </g>
        <g id="Windows3" serif:id="Windows" transform="matrix(1,1.85871e-32,1.2326e-32,1.50796,-1561.14,-2038.91)">
            <path d="M1707.8,1408.5L1707.8,1446.5L1698.8,1446.5L1698.8,1444.5L1705.8,1444.5L1705.8,1410.5L1671.8,1410.5L1671.8,1417.5L1669.8,1417.5L1669.8,1408.5L1707.8,1408.5Z" style="fill:rgb(255,244,67);"/>
        </g>
    </g>
    <g transform="matrix(1.20018,0,0,1.05118,5.89463,7.01394)">
        <text x="4.259px" y="26.57px" style="font-family:'ArialMT', 'Arial', sans-serif;font-size:31.529px;fill:white;">4</text>
        <rect x="4.259" y="29.911" width="17.535" height="2.309" style="fill:white;"/>
    </g>
    <g transform="matrix(-1.27229,-4.11013e-17,-4.13747e-17,-1.13661,193.234,296.193)">
        <text x="4.259px" y="26.57px" style="font-family:'Verdana', sans-serif;font-size:29.913px;fill:white;">4</text>
        <rect x="4.259" y="29.199" width="19.017" height="1.753" style="fill:white;"/>
    </g>
    <g id="Add" transform="matrix(0.374673,5.20188e-32,0,0.38366,-71.9474,3.09391)">
        <path d="M193,43.5L207,43.5L207,29.5L210,29.5L210,43.5L224,43.5L224,46.5L210,46.5L210,60.5L207,60.5L207,46.5L193,46.5L193,43.5Z" style="fill:white;"/>
    </g>
    <g id="Add1" serif:id="Add" transform="matrix(0.374673,5.20188e-32,0,0.38366,113.593,265.939)">
        <path d="M193,43.5L207,43.5L207,29.5L210,29.5L210,43.5L224,43.5L224,46.5L210,46.5L210,60.5L207,60.5L207,46.5L193,46.5L193,43.5Z" style="fill:white;"/>
    </g>
</svg>
