<?xml version="1.0" encoding="UTF-8" standalone="no"?>
<!DOCTYPE svg PUBLIC "-//W3C//DTD SVG 1.1//EN" "http://www.w3.org/Graphics/SVG/1.1/DTD/svg11.dtd">
<svg width="100%" height="100%" viewBox="0 0 200 300" version="1.1" xmlns="http://www.w3.org/2000/svg" xmlns:xlink="http://www.w3.org/1999/xlink" xml:space="preserve" xmlns:serif="http://www.serif.com/" style="fill-rule:evenodd;clip-rule:evenodd;stroke-linejoin:round;stroke-miterlimit:2;">
    <g transform="matrix(1.02983,0,0,1,-3.26162,-1.72445)">
        <rect x="-6.277" y="-7.513" width="212.672" height="312.421" style="fill:rgb(255,244,67);"/>
    </g>
    <g transform="matrix(1.20018,0,0,1.05118,-1.23365,2.89695)">
        <text x="4.259px" y="26.57px" style="font-family:'ArialMT', 'Arial', sans-serif;font-size:31.529px;">4</text>
        <rect x="4.259" y="29.911" width="17.535" height="2.309"/>
    </g>
    <g transform="matrix(-1.27229,0,0,-1.11433,197.257,294.909)">
        <text x="4.259px" y="26.57px" style="font-family:'ArialMT', 'Arial', sans-serif;font-size:31.529px;">4</text>
        <rect x="4.259" y="29.911" width="17.535" height="2.309"/>
    </g>
    <g transform="matrix(1.14175,0,0,1,-9.72829,10.9159)">
        <text x="81.909px" y="159.528px" style="font-family:'Verdana', sans-serif;font-size:33.143px;">?</text>
    </g>
    <g id="Windows" transform="matrix(1,1.85871e-32,1.2326e-32,1.50796,-1583.3,-2010.91)">
        <path d="M1696.8,1419.5L1696.8,1457.5L1658.8,1457.5L1658.8,1419.5L1696.8,1419.5ZM1694.8,1455.5L1694.8,1421.5L1660.8,1421.5L1660.8,1455.5L1694.8,1455.5ZM1707.8,1408.5L1707.8,1446.5L1698.8,1446.5L1698.8,1444.5L1705.8,1444.5L1705.8,1410.5L1671.8,1410.5L1671.8,1417.5L1669.8,1417.5L1669.8,1408.5L1707.8,1408.5Z"/>
    </g>
</svg>
