<?xml version="1.0" encoding="UTF-8" standalone="no"?>
<!DOCTYPE svg PUBLIC "-//W3C//DTD SVG 1.1//EN" "http://www.w3.org/Graphics/SVG/1.1/DTD/svg11.dtd">
<svg width="100%" height="100%" viewBox="0 0 200 300" version="1.1" xmlns="http://www.w3.org/2000/svg" xmlns:xlink="http://www.w3.org/1999/xlink" xml:space="preserve" xmlns:serif="http://www.serif.com/" style="fill-rule:evenodd;clip-rule:evenodd;stroke-linejoin:round;stroke-miterlimit:2;">
    <g transform="matrix(1.01388,0,0,1,-3.36174,-1.72445)">
        <rect x="-6.277" y="-7.513" width="212.672" height="312.421" style="fill:rgb(231,64,64);"/>
    </g>
    <g id="Add" transform="matrix(0.655159,8.883e-32,0,0.655159,-36.6005,120.518)">
        <path d="M193,43.5L207,43.5L207,29.5L210,29.5L210,43.5L224,43.5L224,46.5L210,46.5L210,60.5L207,60.5L207,46.5L193,46.5L193,43.5Z"/>
    </g>
    <g transform="matrix(1,0,0,1,-34,-8.52651e-14)">
        <g id="Windows" transform="matrix(1,1.85871e-32,1.2326e-32,1.50796,-1509.8,-2019.21)">
            <path d="M1696.8,1419.5L1696.8,1457.5L1658.8,1457.5L1658.8,1419.5L1696.8,1419.5ZM1694.8,1455.5L1694.8,1421.5L1660.8,1421.5L1660.8,1455.5L1694.8,1455.5Z"/>
        </g>
        <g id="Windows1" serif:id="Windows" transform="matrix(1,1.85871e-32,1.2326e-32,1.50796,-1577.8,-2019.21)">
            <path d="M1696.8,1419.5L1696.8,1457.5L1658.8,1457.5L1658.8,1419.5L1696.8,1419.5ZM1694.8,1455.5L1694.8,1421.5L1660.8,1421.5L1660.8,1455.5L1694.8,1455.5Z"/>
        </g>
        <g transform="matrix(1.20018,0,0,1.05118,84.3663,131.011)">
            <text x="4.259px" y="26.57px" style="font-family:'ArialMT', 'Arial', sans-serif;font-size:31.529px;">9</text>
            <rect x="4.259" y="29.911" width="17.535" height="2.309"/>
        </g>
        <g transform="matrix(1.20018,0,0,1.25402,152.366,127.658)">
            <text x="4.259px" y="26.57px" style="font-family:'MS-UIGothic', 'MS UI Gothic', sans-serif;font-size:31.529px;">ℙ</text>
            <rect x="4.259" y="28.664" width="19.706" height="2.34"/>
        </g>
    </g>
    <g transform="matrix(1.20018,0,0,1.05118,-1.23365,2.89695)">
        <text x="4.259px" y="26.57px" style="font-family:'ArialMT', 'Arial', sans-serif;font-size:31.529px;">9</text>
        <rect x="4.259" y="29.911" width="17.535" height="2.309"/>
    </g>
    <g transform="matrix(-1.27229,0,0,-1.11433,197.257,294.909)">
        <text x="4.259px" y="26.57px" style="font-family:'ArialMT', 'Arial', sans-serif;font-size:31.529px;">9</text>
        <rect x="4.259" y="29.911" width="17.535" height="2.309"/>
    </g>
</svg>
