<?xml version="1.0" encoding="UTF-8" standalone="no"?>
<!DOCTYPE svg PUBLIC "-//W3C//DTD SVG 1.1//EN" "http://www.w3.org/Graphics/SVG/1.1/DTD/svg11.dtd">
<svg width="100%" height="100%" viewBox="0 0 200 300" version="1.1" xmlns="http://www.w3.org/2000/svg" xmlns:xlink="http://www.w3.org/1999/xlink" xml:space="preserve" xmlns:serif="http://www.serif.com/" style="fill-rule:evenodd;clip-rule:evenodd;stroke-linejoin:round;stroke-miterlimit:2;">
    <g transform="matrix(1.01388,0,0,1,-3.36174,-1.72445)">
        <rect x="-6.277" y="-7.513" width="212.672" height="312.421" style="fill:rgb(67,97,255);"/>
    </g>
    <g id="Add" transform="matrix(0.437142,0.437142,-0.437142,0.437142,-54.0008,-1142.65)">
        <path d="M1406.5,1225.7C1394.3,1225.7 1384.5,1235.5 1384.5,1247.7C1384.5,1259.9 1394.3,1269.7 1406.5,1269.7C1418.7,1269.7 1428.5,1259.9 1428.5,1247.7C1428.5,1235.5 1418.7,1225.7 1406.5,1225.7ZM1406.5,1227.7C1417.5,1227.7 1426.5,1236.7 1426.5,1247.7C1426.5,1258.7 1417.5,1267.7 1406.5,1267.7C1395.5,1267.7 1386.5,1258.7 1386.5,1247.7C1386.5,1236.7 1395.5,1227.7 1406.5,1227.7ZM1407.5,1236.7L1407.5,1246.7L1417.5,1246.7L1417.5,1248.7L1407.5,1248.7L1407.5,1258.7L1405.5,1258.7L1405.5,1248.7L1395.5,1248.7L1395.5,1246.7L1405.5,1246.7L1405.5,1236.7L1407.5,1236.7Z"/>
    </g>
    <g id="Add1" serif:id="Add" transform="matrix(0.437142,0.437142,-0.437142,0.437142,113.745,-878.371)">
        <path d="M1406.5,1225.7C1394.3,1225.7 1384.5,1235.5 1384.5,1247.7C1384.5,1259.9 1394.3,1269.7 1406.5,1269.7C1418.7,1269.7 1428.5,1259.9 1428.5,1247.7C1428.5,1235.5 1418.7,1225.7 1406.5,1225.7ZM1406.5,1227.7C1417.5,1227.7 1426.5,1236.7 1426.5,1247.7C1426.5,1258.7 1417.5,1267.7 1406.5,1267.7C1395.5,1267.7 1386.5,1258.7 1386.5,1247.7C1386.5,1236.7 1395.5,1227.7 1406.5,1227.7ZM1407.5,1236.7L1407.5,1246.7L1417.5,1246.7L1417.5,1248.7L1407.5,1248.7L1407.5,1258.7L1405.5,1258.7L1405.5,1248.7L1395.5,1248.7L1395.5,1246.7L1405.5,1246.7L1405.5,1236.7L1407.5,1236.7Z"/>
    </g>
    <g id="Add2" serif:id="Add" transform="matrix(1.26583,1.26583,-1.26583,1.26583,-101.014,-3209.77)">
        <path d="M1406.5,1225.7C1394.3,1225.7 1384.5,1235.5 1384.5,1247.7C1384.5,1259.9 1394.3,1269.7 1406.5,1269.7C1418.7,1269.7 1428.5,1259.9 1428.5,1247.7C1428.5,1235.5 1418.7,1225.7 1406.5,1225.7ZM1406.5,1227.7C1417.5,1227.7 1426.5,1236.7 1426.5,1247.7C1426.5,1258.7 1417.5,1267.7 1406.5,1267.7C1395.5,1267.7 1386.5,1258.7 1386.5,1247.7C1386.5,1236.7 1395.5,1227.7 1406.5,1227.7ZM1407.5,1236.7L1407.5,1246.7L1417.5,1246.7L1417.5,1248.7L1407.5,1248.7L1407.5,1258.7L1405.5,1258.7L1405.5,1248.7L1395.5,1248.7L1395.5,1246.7L1405.5,1246.7L1405.5,1236.7L1407.5,1236.7Z"/>
    </g>
</svg>
